# xmcd
#
# Track frame offsets: 
#        150
#        2400
#        5891
#        11441
#        19026
#        28026
#        34326
#        40833
#        52308
#        57719
#        64769
#        67619
#        82394
#        91384
#        97459
#        100759
#        109430
#        117673
#
# Disc length: 1613 seconds
#
# Revision: 0
# Processed by: cddbd v1.5.2PL0 Copyright (c) Steve Scherf et al.
# Submitted via: ExactAudioCopy v1.3
#
DISCID=fe064b12
DTITLE=Nicole Bohnenblust undRenie Uetz - Weltenbummler Afrika
DYEAR=2008
DGENRE=Kids
TTITLE0=Flugzüg Rap
TTITLE1=Hallo Chinder
TTITLE2=Wenns di fasch verchlepft vor Fröid
TTITLE3=Zwöi chlini Spatze
TTITLE4=Umba
TTITLE5=Kye, Kye, Kule
TTITLE6=Im schöne grüene Waud
TTITLE7=Füf chlini Fischli
TTITLE8=Si Jela
TTITLE9=Annebäbeli, lüpf dis Bei
TTITLE10=Dä reist nach Afrika
TTITLE11=Rudolf s chline Rentier
TTITLE12=Sia Hamba
TTITLE13=Chopf, Schultere, Chnöi und Füess
TTITLE14=Räge, Rägetröpfli
TTITLE15=Dr Löi
TTITLE16=Dr Mond dä isch ufgange
TTITLE17=Mir säge öich aune Tschüss
EXTD=
EXTT0=
EXTT1=
EXTT2=
EXTT3=
EXTT4=
EXTT5=
EXTT6=
EXTT7=
EXTT8=
EXTT9=
EXTT10=
EXTT11=
EXTT12=
EXTT13=
EXTT14=
EXTT15=
EXTT16=
EXTT17=
PLAYORDER=
